<svg width="17" height="19" viewBox="0 0 17 19" fill="none" xmlns="http://www.w3.org/2000/svg">
<path d="M10.5442 11.3069L10.1849 9.7405C11.3519 8.89511 12.0224 7.46229 12.0224 6.78789V5.1229V3.90972C12.0224 2.91987 11.604 1.96023 10.831 1.31384C10.2251 0.807488 9.37322 0.840655 8.24797 0.828125C7.12271 0.840655 6.27079 0.807488 5.66488 1.31384C4.89193 1.96023 4.47281 2.91913 4.47281 3.90972V5.1229V6.78789C4.47281 7.46229 5.14402 8.89511 6.31103 9.7405V11.3069" stroke="#50535A" stroke-miterlimit="10" stroke-linecap="round"/>
<path d="M9.47721 14.564C9.13249 15.4338 7.86525 15.4338 7.52129 14.564C7.12343 13.5594 6.66026 12.4834 6.35427 11.7861C6.16445 11.3535 5.67016 11.1294 5.207 11.265L2.50622 12.0559C2.1281 12.1664 1.84793 12.4752 1.78111 12.8526L1.0074 17.2498C0.954249 17.5528 1.19418 17.8284 1.5108 17.8284H15.4892C15.8051 17.8284 16.0458 17.552 15.9926 17.2498L15.2189 12.8526C15.1521 12.4752 14.8719 12.1664 14.4938 12.0559L11.793 11.265C11.3299 11.1294 10.8348 11.3535 10.6457 11.7861C10.339 12.4834 9.87583 13.5594 9.47721 14.564Z" stroke="#50535A" stroke-miterlimit="10" stroke-linecap="round"/>
</svg>
