<svg width="17" height="15" viewBox="0 0 17 15" fill="none" xmlns="http://www.w3.org/2000/svg">
<path d="M14.555 13.6881H2.44322C1.74134 13.6881 1.17188 13.031 1.17188 12.2211V2.84391C1.17188 2.03404 1.74134 1.37695 2.44322 1.37695H14.555C15.2569 1.37695 15.8264 2.03404 15.8264 2.84391V12.2211C15.8264 13.0325 15.2582 13.6881 14.555 13.6881Z" stroke="#50535A" stroke-miterlimit="10" stroke-linecap="round"/>
<path fill-rule="evenodd" clip-rule="evenodd" d="M4.66087 5.59277C4.38768 5.59277 4.17117 5.81777 4.17117 6.08914C4.17117 6.36051 4.38768 6.58551 4.66087 6.58551C4.93405 6.58551 5.15056 6.36051 5.15056 6.08914C5.15056 5.81777 4.93405 5.59277 4.66087 5.59277ZM8.49876 5.59277C8.22557 5.59277 8.00906 5.81777 8.00906 6.08914C8.00906 6.36051 8.22557 6.58551 8.49876 6.58551C8.77194 6.58551 8.98845 6.36051 8.98845 6.08914C8.98845 5.81777 8.77194 5.59277 8.49876 5.59277ZM12.3366 5.6123C12.0635 5.6123 11.847 5.8373 11.847 6.10867C11.847 6.38004 12.0635 6.60504 12.3366 6.60504C12.6098 6.60504 12.8263 6.38004 12.8263 6.10867C12.8263 5.8373 12.6098 5.6123 12.3366 5.6123ZM4.66087 7.55762C4.38768 7.55762 4.17117 7.78261 4.17117 8.05398C4.17117 8.32535 4.38768 8.55035 4.66087 8.55035C4.93405 8.55035 5.15056 8.32535 5.15056 8.05398C5.15056 7.78261 4.93405 7.55762 4.66087 7.55762ZM8.49876 7.55664C8.22557 7.55664 8.00906 7.78164 8.00906 8.05301C8.00906 8.32438 8.22557 8.54937 8.49876 8.54937C8.77194 8.54937 8.98845 8.32438 8.98845 8.05301C8.98845 7.78164 8.77194 7.55664 8.49876 7.55664ZM12.3366 7.57617C12.0635 7.57617 11.847 7.80117 11.847 8.07254C11.847 8.34391 12.0635 8.56891 12.3366 8.56891C12.6098 8.56891 12.8263 8.34391 12.8263 8.07254C12.8263 7.80117 12.6098 7.57617 12.3366 7.57617ZM4.66087 9.52051C4.38768 9.52051 4.17117 9.7455 4.17117 10.0169C4.17117 10.2882 4.38768 10.5132 4.66087 10.5132C4.93405 10.5132 5.15056 10.2882 5.15056 10.0169C5.15056 9.7455 4.93405 9.52051 4.66087 9.52051ZM8.49876 9.52051C8.22557 9.52051 8.00906 9.7455 8.00906 10.0169C8.00906 10.2882 8.22557 10.5132 8.49876 10.5132C8.77194 10.5132 8.98845 10.2882 8.98845 10.0169C8.98845 9.7455 8.77194 9.52051 8.49876 9.52051ZM12.3366 9.54004C12.0635 9.54004 11.847 9.76503 11.847 10.0364C11.847 10.3078 12.0635 10.5328 12.3366 10.5328C12.6098 10.5328 12.8263 10.3078 12.8263 10.0364C12.8263 9.76503 12.6098 9.54004 12.3366 9.54004Z" fill="#50535A"/>
<path d="M3.8094 1.89262C4.09191 1.89262 4.32094 1.66197 4.32094 1.37746C4.32094 1.09295 4.09191 0.862305 3.8094 0.862305C3.52688 0.862305 3.29785 1.09295 3.29785 1.37746C3.29785 1.66197 3.52688 1.89262 3.8094 1.89262Z" stroke="#50535A" stroke-miterlimit="10" stroke-linecap="round"/>
<path d="M8.49888 1.89164C8.7814 1.89164 9.01042 1.661 9.01042 1.37648C9.01042 1.09197 8.7814 0.861328 8.49888 0.861328C8.21636 0.861328 7.98734 1.09197 7.98734 1.37648C7.98734 1.661 8.21636 1.89164 8.49888 1.89164Z" stroke="#50535A" stroke-miterlimit="10" stroke-linecap="round"/>
<path d="M13.1884 1.89164C13.4709 1.89164 13.6999 1.661 13.6999 1.37648C13.6999 1.09197 13.4709 0.861328 13.1884 0.861328C12.9058 0.861328 12.6768 1.09197 12.6768 1.37648C12.6768 1.661 12.9058 1.89164 13.1884 1.89164Z" stroke="#50535A" stroke-miterlimit="10" stroke-linecap="round"/>
</svg>
