<svg width="15" height="19" viewBox="0 0 15 19" fill="none" xmlns="http://www.w3.org/2000/svg">
<path d="M11.1623 2.15061C10.1446 1.41159 8.88738 0.967773 7.49847 0.967773C6.11354 0.967773 4.86032 1.40958 3.84258 2.14458C1.24236 4.02829 0.591801 7.65712 2.23615 10.4264L6.30911 17.2885C6.84592 18.1942 8.14902 18.1942 8.68783 17.2885L12.7608 10.4264C14.4031 7.66114 13.7586 4.03632 11.1623 2.15061ZM7.86565 9.9023C6.01975 10.1373 4.4672 8.57487 4.70068 6.71728C4.86032 5.45211 5.87407 4.43194 7.13128 4.27128C8.97718 4.03632 10.5297 5.59871 10.2963 7.4563C10.1366 8.72147 9.12286 9.74365 7.86565 9.9023Z" stroke="#50535A"/>
</svg>
