<svg width="17" height="16" viewBox="0 0 17 16" fill="none" xmlns="http://www.w3.org/2000/svg">
<path d="M15.532 12.8686C15.2348 13.7078 14.0554 14.4037 13.1147 14.607C12.4711 14.744 11.6304 14.8533 8.80043 13.6801C5.18059 12.1804 2.84948 8.50205 2.6678 8.2634C2.49381 8.02474 1.20508 6.31567 1.20508 4.54809C1.20508 2.78052 2.10272 1.91982 2.46455 1.55029C2.76172 1.24697 3.25288 1.1084 3.72403 1.1084C3.87646 1.1084 4.0135 1.1161 4.13667 1.12226C4.4985 1.13765 4.68019 1.15921 4.91884 1.73044C5.216 2.4464 5.93966 4.21398 6.02589 4.39566C6.11365 4.57735 6.20141 4.8237 6.07824 5.06235C5.96276 5.30871 5.86114 5.41803 5.67945 5.62742C5.49777 5.83682 5.32532 5.99695 5.14364 6.22175C4.97735 6.41729 4.78951 6.62669 4.9989 6.98852C5.2083 7.34265 5.93196 8.5236 6.99744 9.47206C8.37239 10.6961 9.48714 11.0872 9.88592 11.2535C10.1831 11.3767 10.5372 11.3474 10.7543 11.1165C11.0299 10.8193 11.3702 10.3266 11.7166 9.84159C11.963 9.49362 12.274 9.45051 12.6004 9.57368C12.933 9.68916 14.6929 10.5591 15.0547 10.7392C15.4165 10.9209 15.6552 11.0071 15.7429 11.1596C15.8292 11.312 15.8292 12.028 15.532 12.8686Z" stroke="#50535A"/>
</svg>
